# xmcd
#
# Track frame offsets: 
#        150
#        18532
#        30175
#        42292
#        55753
#        68465
#        81425
#        93561
#        107815
#        120001
#        133786
#        147028
#        160371
#
# Disc length: 2259 seconds
#
# Revision: 0
# Processed by: cddbd v1.5.2PL0 Copyright (c) Steve Scherf et al.
# Submitted via: ExactAudioCopy v0.99pb4
#
DISCID=a008d10d
DTITLE=Mike Headrick - Bakersfield Gold
DYEAR=1900
DGENRE=Country
TTITLE0=Streets Of Bakersfield
TTITLE1=You Don't Have Very Far To Go
TTITLE2=Sing A Sad Son
TTITLE3=Close UP The Honky Tonks
TTITLE4=You Don't Care What Happens 
TTITLE5=You Take Me For Granted
TTITLE6=It's a Beautiful Day
TTITLE7=Somewhere Between 
TTITLE8=Foolin' Around
TTITLE9=Everybody's Had The Blues
TTITLE10=Cryin' Time
TTITLE11=Honky Tonk Night Time Man
TTITLE12=Mr. Moon
EXTD=
EXTT0=
EXTT1=
EXTT2=
EXTT3=
EXTT4=
EXTT5=
EXTT6=
EXTT7=
EXTT8=
EXTT9=
EXTT10=
EXTT11=
EXTT12=
PLAYORDER=
